<svg width="1080" height="1080" viewBox="0 0 1080 1080" fill="none" xmlns="http://www.w3.org/2000/svg">
<path d="M10.9048 362C12.0407 340.986 16.3572 322.697 23.8542 307.135C31.4649 291.573 46.2318 277.431 68.1549 264.709L100.869 245.796C115.523 237.276 125.803 230.007 131.709 223.986C141.024 214.558 145.681 203.767 145.681 191.613C145.681 177.414 141.422 166.168 132.902 157.876C124.383 149.47 113.024 145.267 98.8247 145.267C77.8102 145.267 63.2705 153.219 55.2055 169.122C50.889 177.641 48.5036 189.454 48.0492 204.562H16.8683C17.2091 183.32 21.128 165.998 28.6251 152.594C41.9153 128.967 65.3719 117.153 98.9951 117.153C126.939 117.153 147.328 124.707 160.164 139.815C173.114 154.923 179.588 171.734 179.588 190.25C179.588 209.787 172.716 226.485 158.971 240.343C151.02 248.408 136.764 258.177 116.204 269.65L92.8611 282.599C81.7291 288.733 72.9826 294.583 66.6215 300.149C55.2623 310.032 48.106 320.993 45.1526 333.034H178.396V362H10.9048ZM275.278 341.724C289.477 341.724 302.426 335.647 314.126 323.492C325.826 311.225 334.118 293.675 339.003 270.843C343.887 247.784 342.808 230.745 335.765 219.727C328.723 208.595 318.272 203.029 304.414 203.029C288.966 203.029 275.164 208.935 263.01 220.749C250.969 232.562 242.507 249.942 237.622 272.887C233.419 292.425 234.044 308.782 239.496 321.959C245.062 335.136 256.99 341.724 275.278 341.724ZM337.469 185.138C342.24 188.546 347.181 194.509 352.293 203.029L371.887 110.849H401.364L348.033 362H320.43L325.712 336.612C316.171 347.858 305.948 355.98 295.043 360.978C284.252 365.976 272.552 368.475 259.943 368.475C239.61 368.475 223.821 359.955 212.575 342.917C201.33 325.764 198.774 302.989 204.908 274.591C210.474 248.011 222.117 225.009 239.837 205.584C257.558 186.047 279.026 176.278 304.244 176.278C318.215 176.278 329.291 179.231 337.469 185.138ZM99.5062 641.383C113.819 641.383 125.689 635.42 135.117 623.492C144.659 611.452 149.43 593.504 149.43 569.65C149.43 555.11 147.328 542.615 143.125 532.165C135.174 512.059 120.634 502.006 99.5062 502.006C78.2646 502.006 63.7249 512.627 55.8871 533.869C51.6842 545.228 49.5827 559.654 49.5827 577.147C49.5827 591.232 51.6842 603.216 55.8871 613.099C63.8385 631.955 78.3782 641.383 99.5062 641.383ZM20.1057 480.367H49.9235V504.562C56.0574 496.27 62.7593 489.852 70.0292 485.308C80.366 478.493 92.5203 475.085 106.492 475.085C127.166 475.085 144.716 483.036 159.142 498.939C173.568 514.729 180.781 537.333 180.781 566.753C180.781 606.511 170.387 634.908 149.6 651.947C136.423 662.738 121.089 668.134 103.596 668.134C89.8509 668.134 78.3214 665.124 69.0069 659.103C63.5545 655.696 57.4773 649.846 50.7754 641.554V734.755H20.1057V480.367ZM200.137 479.515H229.273V511.037C231.659 504.903 237.509 497.463 246.823 488.716C256.138 479.856 266.872 475.426 279.026 475.426C279.594 475.426 280.56 475.483 281.923 475.596C283.286 475.71 285.615 475.937 288.909 476.278V508.651C287.091 508.311 285.387 508.083 283.797 507.97C282.321 507.856 280.673 507.799 278.856 507.799C263.408 507.799 251.537 512.797 243.245 522.794C234.953 532.676 230.807 544.092 230.807 557.041V662H200.137V479.515ZM370.456 642.235C390.789 642.235 404.704 634.568 412.201 619.233C419.812 603.784 423.617 586.632 423.617 567.776C423.617 550.737 420.891 536.879 415.438 526.201C406.806 509.39 391.925 500.984 370.797 500.984C352.054 500.984 338.423 508.14 329.904 522.453C321.385 536.765 317.125 554.031 317.125 574.251C317.125 593.675 321.385 609.861 329.904 622.811C338.423 635.76 351.941 642.235 370.456 642.235ZM371.649 474.233C395.162 474.233 415.041 482.071 431.284 497.747C447.528 513.422 455.65 536.481 455.65 566.924C455.65 596.344 448.494 620.653 434.181 639.85C419.869 659.047 397.661 668.645 367.56 668.645C342.456 668.645 322.521 660.183 307.754 643.257C292.987 626.219 285.603 603.387 285.603 574.762C285.603 544.092 293.384 519.67 308.946 501.495C324.508 483.32 345.409 474.233 371.649 474.233ZM98.4839 941.724C112.683 941.724 125.632 935.647 137.332 923.492C149.032 911.225 157.324 893.675 162.209 870.843C167.093 847.784 166.014 830.745 158.971 819.727C151.929 808.595 141.478 803.029 127.62 803.029C112.172 803.029 98.3703 808.935 86.216 820.749C74.1753 832.562 65.7127 849.942 60.8283 872.887C56.6254 892.425 57.2502 908.782 62.7025 921.959C68.2685 935.136 80.1956 941.724 98.4839 941.724ZM160.675 785.138C165.446 788.546 170.387 794.509 175.499 803.029L195.094 710.849H224.571L171.239 962H143.637L148.919 936.612C139.377 947.858 129.154 955.98 118.249 960.978C107.458 965.976 95.7577 968.475 83.149 968.475C62.8161 968.475 47.0269 959.955 35.7813 942.917C24.5358 925.764 21.98 902.989 28.1139 874.591C33.6799 848.011 45.323 825.009 63.0433 805.584C80.7636 786.047 102.232 776.278 127.45 776.278C141.422 776.278 152.497 779.231 160.675 785.138Z" fill="black"/>
<path d="M267.247 779.734V900.879C267.247 910.194 268.723 917.804 271.677 923.711C277.129 934.616 287.296 940.068 302.176 940.068C323.531 940.068 338.071 930.527 345.795 911.443C349.998 901.22 352.1 887.192 352.1 869.358V779.734H382.769V962.219H353.804L354.144 935.298C350.169 942.227 345.227 948.077 339.321 952.847C327.621 962.389 313.422 967.16 296.724 967.16C270.711 967.16 252.991 958.47 243.563 941.091C238.451 931.776 235.896 919.338 235.896 903.776V779.734H267.247ZM483.741 774.452C504.301 774.452 520.999 779.45 533.835 789.446C546.784 799.442 554.565 816.651 557.178 841.073H527.36C525.543 829.828 521.397 820.513 514.922 813.13C508.447 805.633 498.054 801.884 483.741 801.884C464.203 801.884 450.231 811.426 441.826 830.509C436.373 842.891 433.647 858.169 433.647 876.344C433.647 894.632 437.509 910.023 445.233 922.518C452.958 935.014 465.112 941.261 481.696 941.261C494.419 941.261 504.471 937.399 511.855 929.675C519.352 921.837 524.52 911.159 527.36 897.642H557.178C553.77 921.837 545.251 939.557 531.62 950.803C517.989 961.935 500.553 967.501 479.311 967.501C455.457 967.501 436.43 958.811 422.231 941.431C408.032 923.938 400.933 902.129 400.933 876.003C400.933 843.97 408.714 819.037 424.276 801.203C439.838 783.369 459.66 774.452 483.741 774.452ZM576.534 728.788H607.544V779.734H636.681V804.781H607.544V923.882C607.544 930.243 609.703 934.502 614.019 936.661C616.405 937.91 620.38 938.535 625.946 938.535C627.423 938.535 629.013 938.535 630.717 938.535C632.421 938.421 634.409 938.251 636.681 938.024V962.219C633.159 963.241 629.468 963.979 625.605 964.434C621.857 964.888 617.768 965.115 613.338 965.115C599.025 965.115 589.313 961.48 584.201 954.211C579.09 946.827 576.534 937.285 576.534 925.585V804.781H551.828V779.734H576.534V728.788ZM650.073 780.586H681.254V962.219H650.073V780.586ZM650.073 711.92H681.254V746.679H650.073V711.92ZM782.737 942.454C803.07 942.454 816.985 934.786 824.482 919.452C832.092 904.003 835.898 886.851 835.898 867.995C835.898 850.956 833.171 837.098 827.719 826.42C819.086 809.608 804.205 801.203 783.077 801.203C764.335 801.203 750.704 808.359 742.184 822.672C733.665 836.984 729.405 854.25 729.405 874.469C729.405 893.893 733.665 910.08 742.184 923.03C750.704 935.979 764.221 942.454 782.737 942.454ZM783.929 774.452C807.443 774.452 827.321 782.29 843.565 797.965C859.809 813.641 867.93 836.7 867.93 867.143C867.93 896.563 860.774 920.871 846.462 940.068C832.149 959.265 809.942 968.864 779.84 968.864C754.736 968.864 734.801 960.401 720.034 943.476C705.267 926.437 697.884 903.605 697.884 874.98C697.884 844.311 705.665 819.889 721.227 801.714C736.789 783.539 757.69 774.452 783.929 774.452ZM887.116 779.734H916.252V805.633C924.885 794.955 934.029 787.288 943.685 782.63C953.34 777.973 964.074 775.645 975.888 775.645C1001.79 775.645 1019.28 784.675 1028.37 802.736C1033.37 812.619 1035.86 826.761 1035.86 845.163V962.219H1004.68V847.207C1004.68 836.075 1003.04 827.102 999.742 820.286C994.29 808.927 984.407 803.247 970.095 803.247C962.825 803.247 956.861 803.986 952.204 805.462C943.798 807.961 936.415 812.959 930.054 820.456C924.942 826.477 921.591 832.724 920.001 839.199C918.524 845.56 917.786 854.704 917.786 866.631V962.219H887.116V779.734Z" fill="black"/>
<path d="M580.048 560.525V582.16H491.763V560.525H580.048Z" fill="black"/>
</svg>
