<?xml version="1.0" encoding="UTF-8" standalone="no" ?>
<!DOCTYPE svg PUBLIC "-//W3C//DTD SVG 1.1//EN" "http://www.w3.org/Graphics/SVG/1.1/DTD/svg11.dtd">
<svg xmlns="http://www.w3.org/2000/svg" xmlns:xlink="http://www.w3.org/1999/xlink" version="1.1" width="1080" height="1080" viewBox="0 0 1080 1080" xml:space="preserve">
<desc>Created with Fabric.js 5.2.4</desc>
<defs>
</defs>
<rect x="0" y="0" width="100%" height="100%" fill="transparent"></rect>
<g transform="matrix(1 0 0 1 540 540)" id="731bd0ea-af1c-4ac2-912e-cf1cd8523226"  >
<rect style="stroke: none; stroke-width: 1; stroke-dasharray: none; stroke-linecap: butt; stroke-dashoffset: 0; stroke-linejoin: miter; stroke-miterlimit: 4; fill: rgb(255,255,255); fill-rule: nonzero; opacity: 1; visibility: hidden;" vector-effect="non-scaling-stroke"  x="-540" y="-540" rx="0" ry="0" width="1080" height="1080" />
</g>
<g transform="matrix(1 0 0 1 540 540)" id="56ef1a79-8cad-4c07-88a1-aae3144ad397"  >
</g>
<g transform="matrix(5.18 0 0 5.18 540 540)" id="3b5361f0-b02c-4e1b-b3a5-b1e5b29ee1d2"  >
<path style="stroke: rgb(0,0,0); stroke-width: 0; stroke-dasharray: none; stroke-linecap: butt; stroke-dashoffset: 0; stroke-linejoin: miter; stroke-miterlimit: 4; fill: rgb(105,105,105); fill-rule: nonzero; opacity: 1;" vector-effect="non-scaling-stroke"  transform=" translate(-100, -59.24)" d="M 53.0037 79.0114 C 48.7637 82.1908 44.329 85.0588 39.6994 87.6152 L 1.93348 87.6152 C 2.32713 87.2143 2.71368 86.816 3.11403 86.4035 L 3.11444 86.403 L 3.11523 86.4022 C 4.20695 85.2772 5.40148 84.0463 7.12277 82.3689 C 8.56948 81.2052 9.98047 79.9994 11.408 78.7795 L 11.4081 78.7794 L 11.4081 78.7794 C 11.8291 78.4197 12.2515 78.0587 12.6767 77.6972 L 54.6973 77.6972 C 54.1405 78.1386 53.5759 78.5766 53.0037 79.0114 Z M 59.275 73.8398 L 17.3764 73.8398 C 20.5884 71.2547 23.7524 68.621 26.8682 65.9388 C 28.6624 64.3646 30.353 62.7744 31.9399 61.168 L 70.8841 61.168 C 69.7822 62.6667 68.5987 64.1474 67.3335 65.6099 C 64.8995 68.461 62.2134 71.2043 59.275 73.8398 Z M 35.7429 57.0593 C 35.6704 57.1431 35.5977 57.2269 35.5247 57.3107 L 73.5146 57.3107 C 74.8737 55.1526 76.07 52.9585 77.1037 50.7285 C 77.4565 49.9764 77.7838 49.2249 78.0857 48.474 L 78.0857 57.3107 L 200 57.3107 C 199.811 51.5551 198.776 46.0069 197.013 40.7792 L 44.222 40.7792 C 43.8745 43.0935 43.1379 45.3685 42.0122 47.6042 C 40.4381 50.8381 38.3483 53.9898 35.7429 57.0593 Z M 44.4337 36.9219 C 44.3308 35.1577 43.8492 33.6483 42.9892 32.3939 C 42.0664 30.9139 40.8723 29.7355 39.4068 28.8585 C 37.9412 27.9815 36.2857 27.3512 34.4402 26.9675 C 32.649 26.5838 30.8578 26.3919 29.0666 26.3919 C 26.8411 26.3919 24.5885 26.5564 22.3088 26.8853 C 20.0291 27.2141 17.8307 27.6252 15.7139 28.1185 C 13.597 28.6118 11.6158 29.1874 9.77027 29.8451 C 7.97906 30.448 6.45924 31.051 5.21081 31.6539 L 0 5.34416 C 6.07928 3.26131 12.0771 1.86361 17.9936 1.15105 C 23.91 0.383683 29.5008 0 34.7659 0 L 55.202 0 L 69.6132 0 L 71.7618 0 L 75.3362 0 L 77.1037 0 L 139.059 0 C 164.607 0 186.486 15.2664 195.557 36.9219 L 44.4337 36.9219 Z M 78.0857 73.8398 L 78.0857 61.168 L 200 61.168 C 199.856 65.5273 199.228 69.7677 198.165 73.8398 L 78.0857 73.8398 Z M 78.0857 77.6972 L 78.0857 87.6152 L 192.594 87.6152 C 194.363 84.4713 195.847 81.1543 197.013 77.6972 L 78.0857 77.6972 Z M 1.73821 99.1893 L 0.348805 91.4726 L 190.223 91.4726 C 188.392 94.2092 186.336 96.7898 184.079 99.1893 L 1.73821 99.1893 Z M 78.0857 118.476 L 5.21081 118.476 L 4.41829 114.074 L 162.165 114.074 C 155.039 116.912 147.237 118.476 139.059 118.476 L 79.6277 118.476 L 78.0857 118.476 Z M 2.53195 103.598 L 3.62455 109.666 L 171.068 109.666 C 174.049 107.876 176.859 105.844 179.47 103.598 L 2.53195 103.598 Z" stroke-linecap="round" />
</g>
</svg>