<?xml version="1.0" standalone="no"?>
<!DOCTYPE svg PUBLIC "-//W3C//DTD SVG 20010904//EN"
 "http://www.w3.org/TR/2001/REC-SVG-20010904/DTD/svg10.dtd">
<svg version="1.0" xmlns="http://www.w3.org/2000/svg"
 width="200.000000pt" height="200.000000pt" viewBox="0 0 200.000000 200.000000"
 preserveAspectRatio="xMidYMid meet">
<metadata>
Created by potrace 1.14, written by Peter Selinger 2001-2017
</metadata>
<g transform="translate(0.000000,200.000000) scale(0.100000,-0.100000)"
fill="#000000" stroke="none">
<path d="M155 1575 c-38 -7 -89 -18 -112 -25 -48 -15 -46 4 -12 -169 11 -52
21 -97 23 -99 3 -2 26 3 53 11 98 32 179 39 246 22 48 -12 69 -30 87 -72 l10
-23 750 0 751 0 -7 23 c-27 86 -168 229 -281 283 -131 63 -141 64 -823 63
-445 -1 -634 -5 -685 -14z"/>
<path d="M489 1182 c-42 -3 -46 -5 -59 -40 -7 -20 -26 -56 -42 -79 -16 -24
-25 -43 -21 -44 10 -1 321 -1 350 0 15 1 29 13 42 39 l20 37 1 -37 c0 -23 5
-38 13 -39 66 -4 1199 -1 1203 4 10 10 -17 148 -31 153 -14 6 -1399 11 -1476
6z"/>
<path d="M320 973 c-8 -3 -30 -21 -50 -38 -19 -18 -48 -44 -65 -58 l-30 -26
211 -1 212 0 48 56 c27 31 50 60 52 65 4 9 -354 11 -378 2z"/>
<path d="M780 915 l0 -65 599 0 c521 0 600 2 605 15 3 8 8 37 12 64 l6 50
-611 0 -611 0 0 -64z"/>
<path d="M116 801 c-28 -19 -86 -73 -86 -81 0 -4 84 -6 188 -6 l187 1 67 45
c37 24 65 46 63 48 -2 3 -93 5 -201 6 -153 1 -201 -2 -218 -13z"/>
<path d="M803 812 c-20 -3 -23 -9 -23 -51 l0 -47 573 0 572 1 22 44 c13 25 21
47 18 49 -5 6 -1126 9 -1162 4z"/>
<path d="M10 643 c0 -17 5 -35 11 -39 6 -3 418 -6 915 -6 739 0 906 3 917 14
7 7 21 24 30 38 l16 25 -944 0 -945 0 0 -32z"/>
<path d="M30 528 c0 -21 6 -29 23 -32 12 -3 389 -4 837 -4 780 0 816 1 846 19
75 45 102 44 -827 44 l-879 0 0 -27z"/>
<path d="M52 428 l3 -23 680 0 c675 0 769 3 842 30 33 12 -63 14 -745 14
l-783 1 3 -22z"/>
</g>
</svg>
